<?xml version="1.0" encoding="UTF-8" standalone="no"?>
<!-- Created with Inkscape (http://www.inkscape.org/) -->

<svg
   width="512"
   height="512"
   viewBox="0 0 135.46666 135.46667"
   version="1.1"
   id="svg1"
   xml:space="preserve"
   xmlns="http://www.w3.org/2000/svg"
   xmlns:svg="http://www.w3.org/2000/svg"><defs
     id="defs1" /><g
     id="layer1"><path
       style="fill:#ffe6a0;stroke-width:1.47375"
       d="m 92.984859,90.997643 c -3.664358,-1.183145 -5.492103,-2.998872 -6.527145,-6.484261 -0.850222,-2.862981 -0.808296,-3.555201 0.772728,-12.756886 1.593139,-9.272221 1.596126,-11.328591 0.01873,-12.905453 -0.93851,-0.938202 -1.307821,-1.035219 -3.855712,-1.012879 -3.199121,0.02803 -4.633403,0.613243 -6.380844,2.603481 -1.027837,1.170629 -1.253892,1.956387 -2.221318,7.721008 -0.592373,3.529782 -1.346849,7.909246 -1.676614,9.732164 -0.329765,1.822912 -0.8375,4.630402 -1.128299,6.23887 -0.290813,1.608464 -0.642098,3.670208 -0.780631,4.581661 l -0.251895,1.657205 h -7.959272 c -4.37761,0 -7.95845,-0.04389 -7.957432,-0.09742 6.84e-4,-0.05366 0.613031,-3.606852 1.360035,-7.896082 0.747005,-4.289208 1.813909,-10.420003 2.370912,-13.623978 1.152185,-6.627606 1.061436,-8.576685 -0.466117,-10.011233 -0.859779,-0.807421 -1.359919,-0.927456 -3.785861,-0.908656 -2.307815,0.01784 -3.068183,0.195614 -4.360658,1.019264 -0.860995,0.54869 -1.766077,1.240807 -2.011286,1.53806 -0.245217,0.297239 -1.087844,4.137535 -1.872508,8.533993 -0.784664,4.396458 -1.941333,10.841555 -2.570381,14.322459 -0.629048,3.480914 -1.143724,6.507739 -1.143724,6.726281 0,0.257009 -2.834672,0.397367 -8.024533,0.397367 h -8.024547 l 0.218335,-1.072298 c 0.120081,-0.589761 0.563415,-3.090182 0.985183,-5.556494 2.942096,-17.204024 6.754803,-38.067921 7.002634,-38.31983 0.163262,-0.165946 3.44232,-0.253694 7.286796,-0.194965 7.903785,0.120698 7.22644,-0.242694 6.637732,3.561241 l -0.293233,1.894766 1.856545,-1.77899 c 3.59964,-3.449294 8.992926,-5.260414 14.31165,-4.805993 5.827876,0.497918 9.40203,2.364123 10.957454,5.721356 l 0.88242,1.904596 2.305798,-2.338987 c 3.850783,-3.90621 9.002688,-5.761709 14.706435,-5.296604 5.968425,0.486659 8.904484,1.901445 10.676624,5.144666 1.70734,3.124621 1.70022,7.020919 -0.0317,17.351854 -1.62914,9.717782 -1.65612,10.179476 -0.64805,11.091769 0.71736,0.649201 3.19037,0.741795 5.09252,0.190672 0.50317,-0.145752 0.56692,0.538846 0.45623,4.899626 -0.14693,5.788312 -0.1235,5.743699 -3.96559,7.562941 -1.82814,0.86565 -2.74878,1.028486 -6.238859,1.103511 -2.603174,0.05599 -4.687258,-0.103457 -5.722539,-0.437747 z"
       id="path1" /></g></svg>
