<?xml version="1.0" encoding="UTF-8" standalone="no"?>
<!-- Created with Inkscape (http://www.inkscape.org/) -->

<svg
   width="512"
   height="512"
   viewBox="0 0 135.46666 135.46667"
   version="1.1"
   id="svg1"
   xml:space="preserve"
   xmlns="http://www.w3.org/2000/svg"
   xmlns:svg="http://www.w3.org/2000/svg"><defs
     id="defs1" /><g
     id="layer1"><path
       style="fill:#ffe6a0;stroke-width:2.02516"
       d="m 102.43286,99.70212 c -5.035394,-1.625826 -7.547001,-4.120918 -8.96931,-8.910385 -1.168337,-3.934182 -1.110724,-4.8854 1.061849,-17.529949 2.189221,-12.741477 2.193326,-15.56725 0.02574,-17.734104 -1.289659,-1.289235 -1.79715,-1.422552 -5.298349,-1.391853 -4.396091,0.03852 -6.367018,0.842691 -8.768274,3.577588 -1.412408,1.608627 -1.723043,2.688381 -3.052437,10.609868 -0.814013,4.850471 -1.85078,10.868537 -2.303929,13.37351 -0.453148,2.504965 -1.150855,6.362894 -1.550459,8.57318 -0.399622,2.21028 -0.882342,5.043437 -1.072708,6.295916 L 72.15884,98.843149 H 61.22156 c -6.015518,0 -10.93615,-0.06031 -10.934752,-0.133871 9.4e-4,-0.07374 0.842401,-4.956376 1.8689,-10.850447 1.026502,-5.89404 2.492594,-14.318707 3.258003,-18.721468 1.583282,-9.107364 1.458578,-11.785702 -0.640517,-13.756994 -1.181471,-1.109523 -1.868741,-1.274469 -5.202363,-1.248635 -3.171298,0.02452 -4.216162,0.268804 -5.992224,1.400627 -1.183141,0.753986 -2.426865,1.705062 -2.76382,2.113534 -0.336967,0.408453 -1.494867,5.685618 -2.573118,11.727036 -1.078251,6.041419 -2.667694,14.897986 -3.532104,19.681291 -0.86441,4.783318 -1.571655,8.942647 -1.571655,9.242958 0,0.35317 -3.895281,0.546044 -11.026959,0.546044 h -11.02698 l 0.300027,-1.473504 c 0.16501,-0.810424 0.77422,-4.246392 1.353795,-7.635489 4.042898,-23.64101 9.282151,-52.311255 9.62271,-52.657417 0.224347,-0.228036 4.730284,-0.348615 10.013193,-0.267913 10.861032,0.165858 9.930254,-0.333499 9.121278,4.893701 l -0.402948,2.603703 2.551182,-2.444609 c 4.946466,-4.739868 12.357682,-7.228629 19.666437,-6.604183 8.00841,0.684216 12.919855,3.248673 15.05725,7.862034 l 1.212582,2.617212 3.168526,-3.214133 c 5.291576,-5.367741 12.371096,-7.917486 20.208937,-7.278359 8.20154,0.668745 12.23614,2.612882 14.67134,7.069573 2.34615,4.293716 2.33637,9.647836 -0.0436,23.844151 -2.23869,13.353747 -2.27577,13.988186 -0.89052,15.241819 0.98576,0.892103 4.38406,1.019342 6.99791,0.262013 0.69144,-0.200286 0.77904,0.740458 0.62694,6.732849 -0.20191,7.954043 -0.16971,7.892738 -5.44934,10.39266 -2.51215,1.189538 -3.77725,1.413298 -8.57317,1.516398 -3.57716,0.0769 -6.44102,-0.14217 -7.86366,-0.601535 z"
       id="path1" /></g></svg>
